HIERARCHY
ROOT Hips
{
	OFFSET 0.000000 0.000000 0.000000
	CHANNELS 6 Xposition Yposition Zposition Zrotation Yrotation Xrotation 
	JOINT LHipJoint
	{
		OFFSET 0.000000 0.000000 0.000000
		CHANNELS 3 Zrotation Yrotation Xrotation
		JOINT LeftUpLeg
		{
			OFFSET 1.363060 -1.794630 0.839290
			CHANNELS 3 Zrotation Yrotation Xrotation
			JOINT LeftLeg
			{
				OFFSET 2.448110 -6.726130 0.000000
				CHANNELS 3 Zrotation Yrotation Xrotation
				JOINT LeftFoot
				{
					OFFSET 2.562200 -7.039590 0.000000
					CHANNELS 3 Zrotation Yrotation Xrotation
					JOINT LeftToeBase
					{
						OFFSET 0.157640 -0.433110 2.322550
						CHANNELS 3 Zrotation Yrotation Xrotation
						End Site
						{
							OFFSET 0.000000 0.000000 0.000000
						}
					}
				}
			}
		}
	}
	JOINT RHipJoint
	{
		OFFSET 0.000000 0.000000 0.000000
		CHANNELS 3 Zrotation Yrotation Xrotation
		JOINT RightUpLeg
		{
			OFFSET -1.305520 -1.794630 0.839290
			CHANNELS 3 Zrotation Yrotation Xrotation
			JOINT RightLeg
			{
				OFFSET -2.542530 -6.985550 0.000000
				CHANNELS 3 Zrotation Yrotation Xrotation
				JOINT RightFoot
				{
					OFFSET -2.568260 -7.056230 0.000000
					CHANNELS 3 Zrotation Yrotation Xrotation
					JOINT RightToeBase
					{
						OFFSET -0.164730 -0.452590 2.363150
						CHANNELS 3 Zrotation Yrotation Xrotation
						End Site
						{
							OFFSET 0.000000 0.000000 0.000000
						}
					}
				}
			}
		}
	}
	JOINT LowerBack
	{
		OFFSET 0.000000 0.000000 0.000000
		CHANNELS 3 Zrotation Yrotation Xrotation
		JOINT Spine
		{
			OFFSET 0.028270 2.035590 -0.193380
			CHANNELS 3 Zrotation Yrotation Xrotation
			JOINT Spine1
			{
				OFFSET 0.056720 2.048850 -0.042750
				CHANNELS 3 Zrotation Yrotation Xrotation
				JOINT Neck
				{
					OFFSET 0.000000 0.000000 0.000000
					CHANNELS 3 Zrotation Yrotation Xrotation
					JOINT Neck1
					{
						OFFSET -0.054170 1.746240 0.172020
						CHANNELS 3 Zrotation Yrotation Xrotation
						JOINT Head
						{
							OFFSET 0.104070 1.761360 -0.123970
							CHANNELS 3 Zrotation Yrotation Xrotation
							End Site
							{
								OFFSET 0.000000 0.000000 0.000000
							}
						}
					}
				}
				JOINT LeftShoulder
				{
					OFFSET 0.000000 0.000000 0.000000
					CHANNELS 3 Zrotation Yrotation Xrotation
					JOINT LeftArm
					{
						OFFSET 3.362410 1.200890 -0.311210
						CHANNELS 3 Zrotation Yrotation Xrotation
						JOINT LeftForeArm
						{
							OFFSET 4.983000 -0.000000 -0.000000
							CHANNELS 3 Zrotation Yrotation Xrotation
							JOINT LeftHand
							{
								OFFSET 3.483560 -0.000000 -0.000000
								CHANNELS 3 Zrotation Yrotation Xrotation
								JOINT LeftFingerBase
								{
									OFFSET 0.000000 0.000000 0.000000
									CHANNELS 3 Zrotation Yrotation Xrotation
									JOINT LeftHandIndex1
									{
										OFFSET 0.715260 -0.000000 -0.000000
										CHANNELS 3 Zrotation Yrotation Xrotation
										End Site
										{
											OFFSET 0.000000 0.000000 0.000000
										}
									}
								}
								JOINT LThumb
								{
									OFFSET 0.000000 0.000000 0.000000
									CHANNELS 3 Zrotation Yrotation Xrotation
									End Site
									{
										OFFSET 0.000000 0.000000 0.000000
									}
								}
							}
						}
					}
				}
				JOINT RightShoulder
				{
					OFFSET 0.000000 0.000000 0.000000
					CHANNELS 3 Zrotation Yrotation Xrotation
					JOINT RightArm
					{
						OFFSET -3.136600 1.374050 -0.404650
						CHANNELS 3 Zrotation Yrotation Xrotation
						JOINT RightForeArm
						{
							OFFSET -5.241900 -0.000000 -0.000000
							CHANNELS 3 Zrotation Yrotation Xrotation
							JOINT RightHand
							{
								OFFSET -3.444170 -0.000000 -0.000000
								CHANNELS 3 Zrotation Yrotation Xrotation
								JOINT RightFingerBase
								{
									OFFSET 0.000000 0.000000 0.000000
									CHANNELS 3 Zrotation Yrotation Xrotation
									JOINT RightHandIndex1
									{
										OFFSET -0.622530 -0.000000 -0.000000
										CHANNELS 3 Zrotation Yrotation Xrotation
										End Site
										{
											OFFSET 0.000000 0.000000 0.000000
										}
									}
								}
								JOINT RThumb
								{
									OFFSET 0.000000 0.000000 0.000000
									CHANNELS 3 Zrotation Yrotation Xrotation
									End Site
									{
										OFFSET 0.000000 0.000000 0.000000
									}
								}
							}
						}
					}
				}
			}
		}
	}
}
MOTION
Frames: 11
Frame Time: 0.008333
0.421233 17.968829 21.621907 -2.182224 -3.448029 5.002858 -3.005253 2.059885 3.594806 -6.382544 4.687734 -22.191971 26.911631 17.574914 113.294557 1.278191 -2.675754 26.302541 0.092112 -1.798454 -4.953858 3.506442 -2.160626 3.025299 21.437725 10.954798 -16.849710 -2.445130 -11.106372 35.642045 2.137182 -8.399702 -1.758976 -0.168838 2.599858 -7.169169 3.243697 -0.438756 12.759244 2.784904 -0.084873 4.979822 -1.588253 0.311818 -8.926573 -1.976563 2.335012 -3.078969 0.687537 2.973215 -4.739917 -0.648348 1.460729 -3.390003 -4.154243 4.162024 -1.319506 -76.025560 18.834562 45.067402 112.502144 -64.984266 -84.075100 0.289114 -2.048848 -26.731000 34.286925 8.324417 7.342679 -7.125000 0.000000 0.000000 7.201614 42.729465 -0.389707 4.825786 -3.317939 -1.421407 64.955376 -4.124059 37.948250 -89.141348 62.858633 -70.332408 1.838022 1.723053 -8.337114 -38.545345 26.441598 -19.173403 7.125000 0.000000 0.000000 -6.813354 0.100646 -6.874083
0.419175 17.960541 21.797758 -2.219999 -3.049981 4.977223 -2.960439 1.920860 3.406492 -6.257571 4.000731 -23.183881 27.085262 17.554989 113.992242 1.255287 -3.353834 25.938075 0.036797 -1.187001 -3.263951 3.510895 -2.168359 3.151497 21.520476 10.535010 -16.394620 -2.455424 -11.082618 35.680983 2.148592 -8.451677 -2.212121 -0.221760 3.015566 -8.323477 3.335941 -0.484028 12.889819 2.802608 -0.136145 5.012988 -1.599867 0.305454 -8.947494 -1.943402 2.263805 -3.130531 0.635112 2.884781 -4.805976 -0.668884 1.417391 -3.408887 -4.144065 4.168497 -1.340628 -75.978479 19.188217 44.942696 112.095103 -65.084035 -83.796735 0.293306 -2.081737 -27.087534 34.537436 9.174136 8.005231 -7.125000 0.000000 0.000000 7.471169 43.809988 -0.220767 4.819063 -3.276342 -1.388033 64.991467 -3.483913 37.553652 -89.797275 62.934536 -70.812626 1.809322 1.719332 -8.449210 -38.574466 26.410388 -19.161908 7.125000 0.000000 0.000000 -6.819180 0.079495 -6.877444
0.418502 17.958244 21.986201 -2.276150 -3.065603 5.154960 -2.899672 1.799867 3.225710 -6.170736 3.741909 -24.256690 27.189774 17.566262 114.438335 1.236034 -4.191334 25.490328 0.021796 -0.666702 -1.833386 3.513617 -2.185346 3.246907 21.582911 10.465349 -15.932233 -2.447005 -11.037803 35.645405 2.135853 -8.431056 -2.596474 -0.299700 3.468244 -9.590395 3.334805 -0.342151 12.725722 2.846643 0.026117 5.000341 -1.595024 0.401029 -8.852808 -1.905603 2.159709 -3.167004 0.534913 2.754553 -4.810363 -0.707873 1.355785 -3.407212 -4.130907 4.180752 -1.361161 -75.940810 19.542334 44.905136 111.720346 -65.172162 -83.554201 0.301519 -2.102876 -27.405532 34.494733 9.339946 8.121018 -7.125000 0.000000 0.000000 7.447448 44.025114 -0.180446 4.810544 -3.245525 -1.359702 65.019443 -2.976987 37.089621 -90.602166 63.028818 -71.385159 1.771517 1.713607 -8.501035 -38.805954 26.267941 -19.188713 7.125000 0.000000 0.000000 -6.963067 -0.013676 -7.013106
0.417828 17.955947 22.174645 -2.332301 -3.081225 5.332698 -2.838906 1.678874 3.044929 -6.083900 3.483087 -25.329499 27.294285 17.577536 114.884427 1.216781 -5.028833 25.042582 0.006794 -0.146403 -0.402820 3.516340 -2.202333 3.342317 21.645347 10.395689 -15.469845 -2.438585 -10.992989 35.609827 2.123114 -8.410436 -2.980827 -0.377641 3.920921 -10.857313 3.333668 -0.200274 12.561624 2.890677 0.188380 4.987694 -1.590180 0.496604 -8.758123 -1.867805 2.055613 -3.203477 0.434714 2.624325 -4.814750 -0.746862 1.294179 -3.405536 -4.117750 4.193008 -1.381694 -75.903142 19.896452 44.867576 111.345589 -65.260288 -83.311666 0.309732 -2.124015 -27.723530 34.452029 9.505756 8.236805 -7.125000 0.000000 0.000000 7.423727 44.240239 -0.140124 4.802026 -3.214709 -1.331371 65.047418 -2.470061 36.625590 -91.407058 63.123100 -71.957692 1.733712 1.707882 -8.552860 -39.037442 26.125493 -19.215518 7.125000 0.000000 0.000000 -7.106953 -0.106846 -7.148768
0.417998 17.957778 22.371789 -2.392309 -3.408855 5.520717 -2.767247 1.589447 2.892788 -6.016137 3.575237 -26.327156 27.347891 17.618184 115.131812 1.203031 -5.962079 24.563536 0.039528 -0.525560 -1.450129 3.518577 -2.240161 3.427246 21.682305 10.555347 -14.876962 -2.412023 -10.927563 35.499305 2.092398 -8.324829 -3.224505 -0.470219 4.370077 -12.124807 3.258956 0.068890 12.312432 2.940366 0.500845 4.995121 -1.576802 0.665889 -8.601476 -1.854693 1.957434 -3.231365 0.333849 2.501953 -4.805079 -0.782053 1.237738 -3.399935 -4.103046 4.204872 -1.400183 -75.852611 20.239768 44.953727 111.176512 -65.307415 -83.203676 0.322083 -2.136774 -28.225817 34.248079 9.506581 8.185721 -7.125000 0.000000 0.000000 7.245384 44.223133 -0.137956 4.792387 -3.189570 -1.305979 65.052722 -2.011948 36.141047 -92.275014 63.213179 -72.566680 1.693469 1.696723 -8.575582 -39.260423 26.025878 -19.268335 7.125000 0.000000 0.000000 -7.232659 -0.147053 -7.272353
0.418830 17.962847 22.575758 -2.455340 -3.981198 5.716801 -2.687044 1.524779 2.763108 -5.963333 3.942659 -27.265869 27.361570 17.681872 115.223349 1.193598 -6.970420 24.059943 0.109700 -1.610174 -4.440869 3.520433 -2.294333 3.503952 21.699280 10.894861 -14.181728 -2.371233 -10.845973 35.330005 2.047581 -8.188252 -3.357851 -0.574279 4.816472 -13.392753 3.126537 0.437889 11.996500 2.994489 0.931116 5.018292 -1.556730 0.892987 -8.396233 -1.860945 1.863895 -3.252520 0.232461 2.385742 -4.784383 -0.814264 1.185346 -3.391254 -4.087130 4.216429 -1.417069 -75.791991 20.574613 45.136907 111.168753 -65.322385 -83.201212 0.337680 -2.142959 -28.872645 33.917663 9.378006 8.003759 -7.125000 0.000000 0.000000 6.945769 44.023885 -0.165713 4.781868 -3.168884 -1.282892 65.040245 -1.592119 35.640417 -93.192433 63.299961 -73.204261 1.651315 1.681301 -8.575477 -39.476731 25.959855 -19.341554 7.125000 0.000000 0.000000 -7.344105 -0.145721 -7.386464
0.419662 17.967917 22.779727 -2.518372 -4.553540 5.912885 -2.606842 1.460110 2.633429 -5.910529 4.310081 -28.204582 27.375250 17.745560 115.314885 1.184165 -7.978761 23.556349 0.179873 -2.694787 -7.431608 3.522290 -2.348506 3.580659 21.716256 11.234376 -13.486495 -2.330442 -10.764383 35.160705 2.002764 -8.051675 -3.491197 -0.678339 5.262867 -14.660699 2.994118 0.806887 11.680569 3.048612 1.361386 5.041462 -1.536657 1.120085 -8.190990 -1.867196 1.770356 -3.273674 0.131074 2.269531 -4.763688 -0.846476 1.132954 -3.382572 -4.071213 4.227986 -1.433955 -75.731372 20.909457 45.320086 111.160995 -65.337356 -83.198747 0.353278 -2.149145 -29.519473 33.587246 9.249431 7.821797 -7.125000 0.000000 0.000000 6.646155 43.824637 -0.193470 4.771349 -3.148199 -1.259804 65.027768 -1.172291 35.139788 -94.109852 63.386743 -73.841842 1.609160 1.665880 -8.575373 -39.693040 25.893833 -19.414772 7.125000 0.000000 0.000000 -7.455552 -0.144388 -7.500576
0.412503 17.976982 22.935011 -2.435229 -4.147169 5.787875 -2.576799 1.315968 2.425058 -5.984949 3.451941 -29.197513 27.392743 17.779657 115.430280 1.179180 -8.493321 23.593098 0.270567 -3.273099 -9.046664 3.536722 -2.365724 3.721770 21.683068 10.819735 -12.975035 -2.286087 -10.672751 34.953991 1.957152 -7.890869 -3.294417 -0.695656 5.331421 -14.856436 2.835821 0.831855 12.274656 3.090802 1.380911 4.956821 -1.411899 1.146138 -8.587933 -1.880562 1.696414 -3.183874 0.059171 2.170628 -4.800988 -0.869156 1.088280 -3.415431 -4.062706 4.248940 -1.452718 -75.627468 21.196622 45.506287 111.181651 -65.350812 -83.193213 0.355140 -2.158568 -29.977589 33.781416 9.614713 8.130062 -7.125000 0.000000 0.000000 6.849249 44.289634 -0.115848 4.756801 -3.121613 -1.236249 65.019146 -0.825286 34.688743 -95.057534 63.447664 -74.482400 1.567078 1.642860 -8.691947 -39.924680 25.990066 -19.623778 7.125000 0.000000 0.000000 -7.537728 0.067346 -7.613159
0.404780 17.986329 23.086859 -2.341767 -3.671712 5.640199 -2.550297 1.166216 2.211131 -6.068351 2.507291 -30.194271 27.410505 17.811666 115.547359 1.174509 -8.973025 23.667988 0.362709 -3.815672 -10.564613 3.552043 -2.380334 3.867427 21.646339 10.351860 -12.476548 -2.241480 -10.580412 34.744636 1.911484 -7.728352 -3.074333 -0.706850 5.373304 -14.976487 2.675698 0.832537 12.932979 3.132150 1.371442 4.864570 -1.279752 1.158001 -9.027384 -1.894431 1.623854 -3.086242 -0.010652 2.072947 -4.842382 -0.891164 1.044151 -3.451222 -4.054721 4.270558 -1.471615 -75.520509 21.480422 45.692700 111.204313 -65.364161 -83.187462 0.356033 -2.168220 -30.422384 34.012616 10.014855 8.472930 -7.125000 0.000000 0.000000 7.087829 44.801518 -0.030788 4.741969 -3.094612 -1.212660 65.010796 -0.483421 34.241198 -96.007352 63.506759 -75.123169 1.525001 1.619303 -8.816757 -40.157402 26.097751 -19.842368 7.125000 0.000000 0.000000 -7.617839 0.293933 -7.725633
0.398275 17.998345 23.251648 -2.336529 -3.419847 5.570686 -2.502235 1.039362 2.016246 -6.068072 1.826711 -31.168454 27.402527 17.869235 115.547490 1.172130 -9.534935 23.697592 0.464411 -4.348346 -12.062586 3.562854 -2.404202 3.998281 21.676381 10.069423 -11.915816 -2.189609 -10.478449 34.504602 1.857813 -7.534319 -2.780643 -0.711003 5.388815 -15.020927 2.577135 0.913986 13.362471 3.180006 1.467688 4.799357 -1.200786 1.219321 -9.314840 -1.901828 1.541170 -3.023861 -0.061467 1.962893 -4.865290 -0.906084 0.993438 -3.473715 -4.044470 4.288832 -1.489352 -75.399813 21.762951 45.886948 111.297738 -65.364089 -83.230647 0.356615 -2.171021 -30.801448 34.113876 10.211554 8.635133 -7.125000 0.000000 0.000000 7.197328 45.045552 0.009332 4.728380 -3.070867 -1.189801 65.022453 -0.140240 33.808168 -96.912948 63.551890 -75.733863 1.484057 1.600269 -9.027506 -40.318540 26.194537 -20.009774 7.125000 0.000000 0.000000 -7.660823 0.483756 -7.794924
0.394513 18.016365 23.445557 -2.529795 -3.671066 5.677038 -2.405663 0.964028 1.864206 -5.879514 1.740289 -32.091843 27.336634 17.984315 115.284488 1.174908 -10.281806 23.625301 0.587623 -4.858746 -13.515616 3.563521 -2.448904 4.095825 21.856653 10.204225 -11.215036 -2.121395 -10.354837 34.195541 1.786132 -7.269372 -2.321336 -0.699314 5.344991 -14.895241 2.617081 1.177158 13.277091 3.242508 1.801793 4.794979 -1.241478 1.391922 -9.260310 -1.894660 1.435702 -3.040797 -0.069518 1.825003 -4.846603 -0.905056 0.927910 -3.466291 -4.029122 4.299583 -1.504479 -75.248209 22.042621 46.098820 111.550378 -65.333822 -83.383935 0.356497 -2.158409 -31.032616 33.922772 9.950505 8.390842 -7.125000 0.000000 0.000000 7.016394 44.686921 -0.051665 4.717588 -3.054449 -1.168584 65.079122 0.205903 33.407798 -97.719040 63.565603 -76.276890 1.445665 1.591409 -9.431620 -40.318611 26.266795 -20.062013 7.125000 0.000000 0.000000 -7.620273 0.590862 -7.767053
